{"title":"Casualties of War-AC3-XviD-DVDRip 1989 TBS","uid":6472157,"size":1675167670,"categoryP":"video","categoryS":"movies","magnet":"?xt=urn:btih:23adaeab47a386a7130ce0f32e3190d565f46f0d&amp;dn=Casualties+of+War-AC3-XviD-DVDRip+1989+TBS&amp;tr=udp%3A%2F%2Ftracker.openbittorrent.com%3A80&amp;tr=udp%3A%2F%2Fopen.demonii.com%3A1337&amp;tr=udp%3A%2F%2Ftracker.coppersurfer.tk%3A6969&amp;tr=udp%3A%2F%2Fexodus.desync.com%3A6969","seeders":0,"leechers":1,"uploader":"FatFreddy30","files":-1,"time":1308178218,"description":"During the Vietnam War, a soldier finds himself the outsider of his own squad when they unnecessarily kidnap a female villager. \n &lt;a href=&quot;\nhttp://www.imdb.com/title/tt0097027/&quot; rel=&quot;nofollow&quot; target=&quot;_NEW&quot;&gt;\nhttp://www.imdb.com/title/tt0097027/&lt;/a&gt;\n\nSubs: Dutch, English.\n\nAmerika is in oorlog met Vietnam: Nadat een van hun makkers is vermoord, en de toegang tot een plaatselijk dorp met bijhorende bordelen hen wordt geweigerd, slaan de stoppen door bij een groep Amerikaanse soldaten. Ze ontvoeren een meisje uit haar dorp om haar in de jungle te verkrachten. Een van hen vindt dit moreel niet verantwoord, en komt in opstand...\n &lt;a href=&quot;\nhttp://www.moviemeter.nl/film/810&quot; rel=&quot;nofollow&quot; target=&quot;_NEW&quot;&gt;\nhttp://www.moviemeter.nl/film/810&lt;/a&gt;\n\nSubs: Engels, Nederlands.\n\nGeneral\nComplete name                    : Casualties of War-AC3-XviD-DVDRip 1989.avi\nFormat                           : AVI\nFormat/Info                      : Audio Video Interleave\nFile size                        : 1.56 GiB\nDuration                         : 1h 48mn\nOverall bit rate                 : 2 047 Kbps\nWriting application              : VirtualDubMod 1.5.4.1 (build 2178/release)\nWriting library                  : VirtualDubMod build 2178/release\nSource                           : Pal Retail\n\nVideo\nID                               : 0\nFormat                           : MPEG-4 Visual\nFormat profile                   : Simple@L3\nFormat settings, BVOP            : No\nFormat settings, QPel            : No\nFormat settings, GMC             : No warppoints\nFormat settings, Matrix          : Default (H.263)\nCodec ID                         : XVID\nCodec ID/Hint                    : XviD\nDuration                         : 1h 48mn\nBit rate                         : 1 589 Kbps\nWidth                            : 720 pixels\nHeight                           : 304 pixels\nDisplay aspect ratio             : 2.35:1\nFrame rate                       : 25.000 fps\nColor space                      : YUV\nChroma subsampling               : 4:2:0\nBit depth                        : 8 bits\nScan type                        : Progressive\nCompression mode                 : Lossy\nBits/(Pixel*Frame)               : 0.290\nStream size                      : 1.21 GiB (78%)\nWriting library                  : XviD 1.1.2 (UTC 2006-11-01)\n\nAudio\nID                               : 1\nFormat                           : AC-3\nFormat/Info                      : Audio Coding 3\nMode extension                   : CM (complete main)\nCodec ID                         : 2000\nDuration                         : 1h 48mn\nBit rate mode                    : Constant\nBit rate                         : 448 Kbps\nChannel(s)                       : 6 channels\nChannel positions                : Front: L C R, Side: L R, LFE\nSampling rate                    : 48.0 KHz\nBit depth                        : 16 bits\nCompression mode                 : Lossy\nStream size                      : 349 MiB (22%)\nAlignment                        : Split accross interleaves\nInterleave, duration             : 40 ms (1.00 video frame)\nInterleave, preload duration     : 500 ms\n\nEnjoy...\n\nTBS.","torrent":{"xt":"urn:btih:23adaeab47a386a7130ce0f32e3190d565f46f0d","amp;dn":"Casualties+of+War-AC3-XviD-DVDRip+1989+TBS","amp;tr":["udp%3A%2F%2Ftracker.openbittorrent.com%3A80","udp%3A%2F%2Fopen.demonii.com%3A1337","udp%3A%2F%2Ftracker.coppersurfer.tk%3A6969","udp%3A%2F%2Fexodus.desync.com%3A6969"],"infoHash":"23adaeab47a386a7130ce0f32e3190d565f46f0d","infoHashBuffer":{"type":"Buffer","data":[35,173,174,171,71,163,134,167,19,12,224,243,46,49,144,213,101,244,111,13]},"announce":[],"urlList":[]}}